HIERARCHY
ROOT ui
{
	 OFFSET 0 0 0
	 CHANNELS 3 XPosition YPosition Z Position
	 EndSite
	 {
	 OFFSET 0 -1 0
	 }
}
ROOT li
{
	 OFFSET 0 0 0
	 CHANNELS 3 XPosition YPosition Z Position
	 EndSite
	 {
	 OFFSET 0 -1 0
	 }
}
ROOT ul
{
	 OFFSET 0 0 0
	 CHANNELS 3 XPosition YPosition Z Position
	 EndSite
	 {
	 OFFSET 0 -1 0
	 }
}
ROOT ll
{
	 OFFSET 0 0 0
	 CHANNELS 3 XPosition YPosition Z Position
	 EndSite
	 {
	 OFFSET 0 -1 0
	 }
}
ROOT tt
{
	 OFFSET 0 0 0
	 CHANNELS 3 XPosition YPosition Z Position
	 EndSite
	 {
	 OFFSET 0 -1 0
	 }
}
ROOT tb
{
	 OFFSET 0 0 0
	 CHANNELS 3 XPosition YPosition Z Position
	 EndSite
	 {
	 OFFSET 0 -1 0
	 }
}
ROOT td
{
	 OFFSET 0 0 0
	 CHANNELS 3 XPosition YPosition Z Position
	 EndSite
	 {
	 OFFSET 0 -1 0
	 }
}
ROOT v
{
	 OFFSET 0 0 0
	 CHANNELS 3 XPosition YPosition Z Position
	 EndSite
	 {
	 OFFSET 0 -1 0
	 }
}
ROOT bn
{
	 OFFSET 0 0 0
	 CHANNELS 3 XPosition YPosition Z Position
	 EndSite
	 {
	 OFFSET 0 -1 0
	 }
}
MOTION
Frames: 27
Frame Time: 0.002
0.007484875202178955	-0.0013264110088348389	0		0.42998638916015625	-2.3551484375	0		-1.0343016357421875	0.07030416107177734	0		-0.8838836059570313	-2.48717333984375	0		1.382736083984375	-0.7096807861328125	0		3.087574462890625	-0.02728525161743164	0		4.489576171875	0.05998678207397461	0		5.578560546875	0.04843394088745117	0		-0.0939417724609375	5.94084423828125	0		
-0.06915863037109375	9.630920290946961E-4	0		0.40841122436523436	-2.347956787109375	0		-1.0289005126953126	0.07398651885986328	0		-0.833772216796875	-2.496382568359375	0		1.387124267578125	-0.7060194091796875	0		3.143646728515625	-0.04067942810058594	0		4.50673681640625	0.051340614318847656	0		5.58984130859375	0.04588706588745117	0		-0.07636480712890625	5.9482724609375	0		
0.020360918045043946	0.00795894718170166	0		0.42265484619140625	-2.352478515625	0		-1.094369384765625	0.0830682373046875	0		-0.8504057006835938	-2.494273681640625	0		1.3946103515625	-0.6994183349609375	0		3.12458349609375	-0.011572195053100585	0		4.51151171875	0.07195458221435547	0		5.5853798828125	0.05466655731201172	0		-0.09009825134277344	5.9393134765625	0		
-0.05523062896728516	0.010227874755859375	0		0.44007867431640624	-2.349058837890625	0		-1.0261668701171875	0.07349539947509766	0		-0.7931300659179688	-2.4986318359375	0		1.3928973388671875	-0.7036309814453126	0		3.105445068359375	-0.03746231079101563	0		4.51562744140625	0.05859061050415039	0		5.5874560546875	0.039330894470214844	0		-0.08963986206054687	5.94007666015625	0		
0.015968735694885255	5.890240073204041E-4	0		0.41243829345703126	-2.348739013671875	0		-1.099760009765625	0.07573883819580078	0		-0.8636640014648438	-2.492450439453125	0		1.414239990234375	-0.705290283203125	0		3.10195654296875	-0.030640254974365233	0		4.51699951171875	0.05830411148071289	0		5.56922900390625	0.0594290771484375	0		-0.08920281219482422	5.9408447265625	0		
0.014267178535461425	-0.00259484601020813	0		0.4386819152832031	-2.354479736328125	0		-1.0234368896484376	0.07301137542724609	0		-0.830442138671875	-2.49932470703125	0		1.392559326171875	-0.707083251953125	0		3.140147705078125	-0.03962950897216797	0		4.518357421875	0.05804167938232422	0		5.57956494140625	0.057983943939208984	0		-0.08684112548828125	5.93958154296875	0		
0.015597878456115722	-0.002828577995300293	0		0.3881806335449219	-2.345683349609375	0		-1.097071533203125	0.07526612854003906	0		-0.8609871215820313	-2.49292431640625	0		1.3969486083984375	-0.7043776245117187	0		3.11403955078125	-0.01131439208984375	0		4.50868994140625	0.0580244140625	0		5.596634765625	0.044433036804199216	0		-0.07129251861572265	5.95006787109375	0		
0.027083175659179688	0.006749703884124756	0		0.44744625854492187	-2.348053955078125	0		-1.0917242431640626	0.07796102905273437	0		-0.8576504516601563	-2.491188720703125	0		1.38032275390625	-0.7002379150390625	0		3.1468857421875	-0.03415570068359375	0		4.5209765625	0.057600189208984375	0		5.58734228515625	0.06544487762451172	0		-0.07002400970458984	5.94984619140625	0		
-0.05579093551635742	0.002210057020187378	0		0.41969744873046877	-2.347682373046875	0		-1.1004547119140624	0.07994403839111328	0		-0.8224899291992187	-2.496075439453125	0		1.399473388671875	-0.7047910766601563	0		3.137394287109375	-0.020124401092529297	0		4.52220458984375	0.057426071166992186	0		5.5885703125	0.06527851104736328	0		-0.08305426025390625	5.93891845703125	0		
0.026381481170654298	0.0024124031066894533	0		0.44578790283203124	-2.352363525390625	0		-1.0184417114257813	0.07213641357421875	0		-0.834192138671875	-2.49001904296875	0		1.4006298828125	-0.7049666748046876	0		3.14028515625	-0.033317886352539065	0		4.5233525390625	0.05728498458862305	0		5.595181640625	0.038035587310791014	0		-0.08197119903564454	5.9387265625	0		
-0.057648612976074216	-0.0010770159959793092	0		0.41788052368164064	-2.35195703125	0		-1.0173905029296875	0.07194702911376953	0		-0.82634228515625	-2.502342041015625	0		1.3986337890625	-0.7080604858398437	0		3.104503662109375	-0.02471477508544922	0		4.5182470703125	0.04929756164550781	0		5.59139306640625	0.04604099273681641	0		-0.08100628662109376	5.93855078125	0		
0.021259397506713868	-0.0037786900997161866	0		0.4566808776855469	-2.36185693359375	0		-1.01644873046875	0.07177120971679687	0		-0.8463890991210937	-2.504098388671875	0		1.38167236328125	-0.7038368530273438	0		3.1561005859375	-0.04282139205932617	0		4.5033505859375	0.057537673950195316	0		5.60229345703125	0.04378810501098633	0		-0.07725119018554688	5.93433349609375	0		
-0.044685009002685544	0.008404301643371583	0		0.4258793029785156	-2.345357421875	0		-1.0765540771484374	0.07581479644775391	0		-0.816318115234375	-2.494831787109375	0		1.406567138671875	-0.7014218139648437	0		3.129485595703125	-0.01434509563446045	0		4.515171875	0.05727754211425781	0		5.60311767578125	0.04376910018920899	0		-0.07849440002441406	5.93723095703125	0		
0.02990325355529785	0.0018213119506835939	0		0.4515351257324219	-2.35096142578125	0		-1.0149254760742188	0.07146263885498047	0		-0.853547607421875	-2.494223388671875	0		1.4072860107421874	-0.701509033203125	0		3.116696533203125	-0.03912833786010742	0		4.5268701171875	0.05704975128173828	0		5.58323681640625	0.06519579315185547	0		-0.07891918182373046	5.938126953125	0		
-0.0474863395690918	0.004255208015441894	0		0.45013623046875	-2.353013671875	0		-1.0143518676757812	0.07133023834228516	0		-0.7850941772460938	-2.5046904296875	0		1.424779052734375	-0.7069091186523437	0		3.1325068359375	-0.027445308685302733	0		4.52260302734375	0.0651666030883789	0		5.58865185546875	0.05714762115478516	0		-0.07752662658691406	5.93700048828125	0		
0.02381113624572754	-0.004230937957763672	0		0.4485972595214844	-2.356048583984375	0		-1.0929486083984374	0.06976713562011719	0		-0.85849658203125	-2.50034619140625	0		1.40527294921875	-0.705561279296875	0		3.15381494140625	-0.03485188293457031	0		4.53373291015625	0.04900028610229492	0		5.5948818359375	0.04611071395874024	0		-0.07725540924072266	5.93690966796875	0		
-0.049770904541015626	0.0011493769884109498	0		0.40598641967773436	-2.356262939453125	0		-1.088548095703125	0.0735786590576172	0		-0.8092777709960938	-2.510408935546875	0		1.4056204833984376	-0.7055902099609375	0		3.138556640625	-0.013514298439025879	0		4.52821484375	0.05718812942504883	0		5.595205078125	0.04621623229980469	0		-0.06290751647949219	5.94755615234375	0		
0.03145846176147461	0.0014968539476394654	0		0.42642474365234373	-2.34870458984375	0		-1.0842867431640626	0.076401611328125	0		-0.8418436279296875	-2.5028515625	0		1.408927978515625	-0.7016637573242187	0		3.138350830078125	-0.0344656867980957	0		4.52841845703125	0.05727957153320312	0		5.5889404296875	0.07347579956054688	0		-0.07711547088623047	5.93676953125	0		
-0.04233518218994141	0.007895902156829834	0		0.45355633544921875	-2.3512685546875	0		-1.0132870483398437	0.07092382049560547	0		-0.817588623046875	-2.49940185546875	0		1.409046630859375	-0.7016651000976563	0		3.14858154296875	-0.027604143142700197	0		4.5285107421875	0.0573866195678711	0		5.61034228515625	0.03819556045532226	0		-0.0772275390625	5.93671630859375	0		
0.024429279327392577	-0.004455115795135498	0		0.449534423828125	-2.35621533203125	0		-1.0882630615234374	0.0733125	0		-0.8215858154296874	-2.503393310546875	0		1.4059862060546875	-0.7055980834960938	0		3.133577880859375	-0.02724226951599121	0		4.52850146484375	0.0575036506652832	0		5.59486474609375	0.06565817260742188	0		-0.07842343902587891	5.93769140625	0		
-0.053633453369140625	-0.001968469023704529	0		0.4474801940917969	-2.3581962890625	0		-1.0174739379882813	0.0668539810180664	0		-0.7856616821289063	-2.507159912109375	0		1.4059134521484375	-0.7055855102539063	0		3.129384765625	-0.03209080505371094	0		4.52840185546875	0.057624462127685544	0		5.59539404296875	0.04680005264282226	0		-0.21016995239257813	5.91621337890625	0		
0.02415992546081543	-0.004522998809814453	0		0.397591796875	-2.347242431640625	0		-1.08263623046875	0.068052490234375	0		-0.8555996704101563	-2.498857666015625	0		1.384788330078125	-0.7041624755859375	0		3.14303564453125	-0.04128942108154297	0		4.5110751953125	0.050076866149902345	0		5.60517919921875	0.044761394500732424	0		-0.07617815399169922	5.93355859375	0		
-0.03303936004638672	-0.0024465680122375487	0		0.464251708984375	-2.3575634765625	0		-0.998767333984375	0.07234933471679687	0		-0.8028348999023438	-2.503948486328125	0		1.396851806640625	-0.6903856201171875	0		3.143215576171875	-0.020222660064697265	0		4.52799609375	0.05786049270629883	0		5.59851318359375	0.0740438232421875	0		-0.07756404876708985	5.93554248046875	0		
0.033856037139892575	0.005216245174407959	0		0.4531794738769531	-2.35136962890625	0		-1.014072509765625	0.07057521057128906	0		-0.8179404907226563	-2.499717529296875	0		1.4283682861328124	-0.7029931640625	0		3.121681640625	-0.033744503021240234	0		4.5277275390625	0.05797291946411133	0		5.594720703125	0.04725410079956055	0		-0.0790025863647461	5.936525390625	0		
0.023380054473876952	-0.0046225042343139644	0		0.4488740539550781	-2.356312255859375	0		-1.0184353637695311	0.06658576965332032	0		-0.8222218017578125	-2.50370068359375	0		1.4081298828125	-0.7015958862304688	0		3.144413818359375	-0.03312701797485352	0		4.524326171875	0.05214032745361328	0		5.57967041015625	0.05968459701538086	0		-0.09368541717529297	5.92576123046875	0		
-0.05081153106689453	7.708989977836609E-4	0		0.42172793579101564	-2.35281494140625	0		-1.014643798828125	0.07043702697753906	0		-0.8116026611328125	-2.512976318359375	0		1.4247689208984375	-0.7069185791015625	0		3.137114013671875	-0.0339316291809082	0		4.5271572265625	0.0581840705871582	0		5.58999658203125	0.03961141967773438	0		-0.09415391540527343	5.92571923828125	0		
0.022832136154174804	-0.004702613830566406	0		0.450530029296875	-2.353405029296875	0		-1.0839755859375	0.0676968002319336	0		-0.8477255249023438	-2.50934912109375	0		1.3866292724609375	-0.7011841430664062	0		3.13315966796875	-0.01780324935913086	0		4.52689013671875	0.05828110122680664	0		5.5980185546875	0.05458391189575195	0		-0.07941179656982422	5.9353818359375	0		
